<mxfile host="app.diagrams.net" modified="2023-07-16T22:34:42.948Z" agent="Mozilla/5.0 (Windows NT 10.0; Win64; x64) AppleWebKit/537.36 (KHTML, like Gecko) Chrome/114.0.0.0 Safari/537.36" etag="E94mjtNIv9_0dL_Mg07z" version="21.6.2" type="github">
  <diagram name="PÃ¡gina-1" id="cCm3Lrlyy52QD-3mWFAj">
    <mxGraphModel dx="880" dy="476" grid="1" gridSize="10" guides="1" tooltips="1" connect="1" arrows="1" fold="1" page="1" pageScale="1" pageWidth="827" pageHeight="1169" math="0" shadow="0">
      <root>
        <mxCell id="0" />
        <mxCell id="1" parent="0" />
        <mxCell id="toOAoE-HDY_iUTmLpjle-12" value="Usuario" style="swimlane;" vertex="1" parent="1">
          <mxGeometry x="100" y="90" width="200" height="140" as="geometry" />
        </mxCell>
        <mxCell id="toOAoE-HDY_iUTmLpjle-23" value="&lt;ul&gt;&lt;li&gt;&lt;span style=&quot;background-color: initial;&quot;&gt;usuario_id&lt;/span&gt;&lt;/li&gt;&lt;li&gt;nome&lt;/li&gt;&lt;li&gt;email&lt;/li&gt;&lt;li&gt;senha&lt;/li&gt;&lt;/ul&gt;" style="text;strokeColor=none;fillColor=none;html=1;whiteSpace=wrap;verticalAlign=middle;overflow=hidden;" vertex="1" parent="toOAoE-HDY_iUTmLpjle-12">
          <mxGeometry y="20" width="200" height="120" as="geometry" />
        </mxCell>
        <mxCell id="toOAoE-HDY_iUTmLpjle-24" value="Pasta" style="swimlane;" vertex="1" parent="1">
          <mxGeometry x="350" y="90" width="200" height="140" as="geometry" />
        </mxCell>
        <mxCell id="toOAoE-HDY_iUTmLpjle-25" value="&lt;ul&gt;&lt;li&gt;&lt;span style=&quot;background-color: initial;&quot;&gt;pasta_id&lt;/span&gt;&lt;/li&gt;&lt;li&gt;nome&lt;/li&gt;&lt;li&gt;data_criacao&lt;/li&gt;&lt;li&gt;rota_compartilhamento&lt;/li&gt;&lt;/ul&gt;" style="text;strokeColor=none;fillColor=none;html=1;whiteSpace=wrap;verticalAlign=middle;overflow=hidden;" vertex="1" parent="toOAoE-HDY_iUTmLpjle-24">
          <mxGeometry y="20" width="200" height="120" as="geometry" />
        </mxCell>
        <mxCell id="toOAoE-HDY_iUTmLpjle-26" value="Arquivo" style="swimlane;" vertex="1" parent="1">
          <mxGeometry x="590" y="90" width="200" height="140" as="geometry" />
        </mxCell>
        <mxCell id="toOAoE-HDY_iUTmLpjle-27" value="&lt;ul&gt;&lt;li&gt;&lt;span style=&quot;background-color: initial;&quot;&gt;arquivo_id&lt;/span&gt;&lt;/li&gt;&lt;li&gt;nome&lt;/li&gt;&lt;li&gt;pasta_id&lt;/li&gt;&lt;li&gt;data_upload&lt;/li&gt;&lt;li&gt;caminho_diretorio&lt;/li&gt;&lt;/ul&gt;" style="text;strokeColor=none;fillColor=none;html=1;whiteSpace=wrap;verticalAlign=middle;overflow=hidden;" vertex="1" parent="toOAoE-HDY_iUTmLpjle-26">
          <mxGeometry y="20" width="200" height="120" as="geometry" />
        </mxCell>
        <mxCell id="toOAoE-HDY_iUTmLpjle-28" value="Usuario_Pasta" style="swimlane;" vertex="1" parent="1">
          <mxGeometry x="350" y="260" width="200" height="140" as="geometry" />
        </mxCell>
        <mxCell id="toOAoE-HDY_iUTmLpjle-29" value="&lt;ul&gt;&lt;li&gt;&lt;span style=&quot;background-color: initial;&quot;&gt;usuario_pasta_id&lt;/span&gt;&lt;/li&gt;&lt;li&gt;usuario_id&lt;/li&gt;&lt;li&gt;pasta_id&lt;/li&gt;&lt;/ul&gt;" style="text;strokeColor=none;fillColor=none;html=1;whiteSpace=wrap;verticalAlign=middle;overflow=hidden;" vertex="1" parent="toOAoE-HDY_iUTmLpjle-28">
          <mxGeometry y="20" width="200" height="120" as="geometry" />
        </mxCell>
      </root>
    </mxGraphModel>
  </diagram>
</mxfile>
